/* XPM */
static char *_e624dbcd7824c60db4f1232413aa4ffIY1O9SJZXwxeeLEV[] = {
/* columns rows colors chars-per-pixel */
"64 64 142 2 ",
"   c None",
".  c #201207",
"X  c #201308",
"o  c #211308",
"O  c #231409",
"+  c #21140B",
"@  c #241409",
"#  c #22170F",
"$  c #2B190C",
"%  c #341E0C",
"&  c #361F0F",
"*  c #221913",
"=  c #241A13",
"-  c #231B16",
";  c #251C16",
":  c #271D16",
">  c #211C18",
",  c #231C18",
"<  c #201C1A",
"1  c #221D1A",
"2  c #221D1B",
"3  c #231D1B",
"4  c #231E1B",
"5  c #241D1A",
"6  c #241E1A",
"7  c #241E1B",
"8  c #251E1B",
"9  c #261F1C",
"0  c #311E11",
"q  c #3A200F",
"w  c #25201E",
"e  c #26211F",
"r  c #28201C",
"t  c #2C211C",
"y  c #30231D",
"u  c #34251E",
"i  c #38271F",
"p  c #3C281F",
"a  c #313A1E",
"s  c #262321",
"d  c #272625",
"f  c #2C2321",
"g  c #282627",
"h  c #3D2F2D",
"j  c #402619",
"k  c #41281C",
"l  c #442A1D",
"z  c #4F2E1F",
"x  c #572F1B",
"c  c #572F1C",
"v  c #582F1B",
"b  c #63351F",
"n  c #402A20",
"m  c #492D21",
"M  c #4D2F23",
"N  c #503123",
"B  c #533224",
"V  c #573324",
"C  c #573425",
"Z  c #5A3525",
"A  c #5E3625",
"S  c #473536",
"D  c #643723",
"F  c #603726",
"G  c #633927",
"H  c #673924",
"J  c #643927",
"K  c #683B28",
"L  c #6B3C28",
"P  c #6D3D28",
"I  c #713C23",
"U  c #713F29",
"Y  c #1A421A",
"T  c #16561A",
"R  c #16571A",
"E  c #1F5C21",
"W  c #254221",
"Q  c #244322",
"!  c #254C22",
"~  c #28432A",
"^  c #255326",
"/  c #275D2B",
"(  c #1D7623",
")  c #1E7924",
"_  c #256025",
"`  c #266C2B",
"'  c #276E2C",
"]  c #27792D",
"[  c #744029",
"{  c #784129",
"}  c #6C572C",
"|  c #52722E",
" . c #567A2F",
".. c #6A6E30",
"X. c #5F4449",
"o. c #7C565F",
"O. c #824429",
"+. c #81452C",
"@. c #88472B",
"#. c #86482D",
"$. c #88492E",
"%. c #89492E",
"&. c #8C4A2E",
"*. c #8D4A2E",
"=. c #8F4B2F",
"-. c #904C2E",
";. c #914C2F",
":. c #934D30",
">. c #964E30",
",. c #984F30",
"<. c #984F31",
"1. c #9B4F31",
"2. c #995031",
"3. c #9A5031",
"4. c #9B5131",
"5. c #9D5132",
"6. c #9E5232",
"7. c #806030",
"8. c #9B6C78",
"9. c #A4717E",
"0. c #208127",
"q. c #208327",
"w. c #27832D",
"e. c #228929",
"r. c #269A2E",
"t. c #269B2E",
"y. c #259D2E",
"u. c #A76184",
"i. c #A86285",
"p. c #B77D8E",
"a. c #B97E8F",
"s. c #D57CA9",
"d. c #D57DA9",
"f. c #BC8192",
"g. c #D390A3",
"h. c #E79DB3",
"j. c #EA9FB5",
"k. c #F0A2BA",
"l. c #F4A5BD",
"z. c #FF96CB",
"x. c #FBAAC2",
"c. c #FFADC6",
/* pixels */
"                                                                                                  4 4 7 7 7 g w                 ",
"                                                                                                4 7 7 7 7 7 g g r               ",
"                                                                                              7 7 7 7 7 7 7 g g s               ",
"                                                                                            4 7 7 7 7 7 7 - g g w               ",
"                7 , 7 7 7 4                                                               7 4 7 7 7 7 7 7 7 7 9 7 7             ",
"                9 7 7 7 7 4                                                             7 7 7 7 7 7 7 7 7 7 7 7 7 7 7           ",
"            7 7 4 4 7 7 7 4 7 7 7 7 7 7 7 7 7 7 7 7                       7 7 7 7 7 7 7 4 7 7 7 7 7 7 7 7 7 7 7 7 7 7           ",
"            4 7 7 7 7 7 7 7 7 7 7 7 7 7 7 7 7 7 7 7                     = 7 7 7 7 7 7 7 7 7 7 7 7 7 7 7 7 7 7 7 7 7 7           ",
"            w 7 7 7 7 7 7 7 7 7 7 7 7 7 7 7 7 7 7 4 # . . O @ . o o o o , 7 7 7 7 7 7 7 7 7 7 7 7 7 7 7 7 7 7 7 7 7 7           ",
"            w 7 7 7 7 7 7 7 7 7 7 7 7 7 7 7 7 7 7 4 O . O . . . o o X o * 7 7 7 7 7 7 7 7 7 7 7 7 7 7 7 7 7 7 7 7 7 7           ",
"        7 7 P P y 7 7 7 7 7 7 7 7 7 7 7 7 7 7 7 7 7 , * * * = - v U p * 4 7 3 3 7 7 B [ m 4 3 3 7 7 7 7 7 7 7 7 7 7 7           ",
"        7 y *.:.i 7 7 7 7 7 7 7 7 7 7 7 7 7 7 7 7 7 7 7 7 4 7 7 U 5.M 7 4 4 w w 7 7 P 5.B 4 w w 7 9 7 9 7 7 7 7 7 7 7           ",
"        4 y $.;.{ P y 7 7 7 7 7 7 7 7 7 7 7 7 7 7 7 7 7 7 7 7 7 U 5.{ [ [ [ [ [ [ U #.4.+.[ [ [ U U U U l 7 7 7 7 7 7           ",
"        4 y #.<.4.:.i 7 7 7 7 7 7 7 7 7 7 7 7 7 7 7 7 7 7 7 7 7 U 5.,.4.4.4.5.2.4.4.4.,.,.4.2.2.5.5.5.5.A 4 7 7 7 7 7           ",
"    4 7 4 y #.<.4.:.{ K u 4     7 7 7 r o.9.9.9.S 4 7 7 7 7 7 7 k N O.4.,.2.2.2.4.,.4.4.,.2.2.2.,.,.1.4.A 4 7 7 7 7 7           ",
"    7 7 7 y #.4.<.4.5.:.u 4     7 7 7 f f.k.k.h.X.4 7 7 7 7 7 7 4 , [ 4.2.2.2.2.1.,.,.,.4.,.2.2.4.4.,.4.A 4 7 7 7 7 7           ",
"    4 t G U :.4.<.4.:.4.M       7 7 7 f f.k.l.l.p.8.S 4 4 4 7 7 3 9 U 4.2.2.2.2.2.2.2.2.2.2.2.2.,.,.,.4.{ U P [ m 7 7           ",
"    4 y $.5.4.<.4.4.4.4.        7 7 7 f f.k.x.c.l.j.X.- 4 4 7 7 9 3 U 4.2.2.2.2.2.2.2.2.2.2.2.2.,.4.4.,.4.4.5.5.G 4 7           ",
"    4 y $.4.<.4.<.;.A N         7 7 7 f f.k.x.c.x.l.p.8.S 4 7 7 N P %.4.2.2.2.2.2.2.2.2.2.2.:.2.2.2.,.4.[ N N N p 7 7           ",
"    4 y $.<.4.<.4.;.i 4         , 7 7 f f.k.x.c.c.c.l.j.X.< 7 7 [ 5.5.2.2.2.2.2.2.2.2.2.2.2.4.4.2.,.,.4.A , 4 4 7 7 7           ",
"    7 y $.:.F B N N t 4             7 9 X.o.g.l.x.c.k.h.X.- 9 9 [ 4.4.:.2.2.2.2.2.2.2.2.:.4.4.4.2.2.[ N p 4 7 7 7 7 7           ",
"    7 y $.;.u < 4 4 7 7             7 7 - 9 a.k.x.c.l.j.X.< 4 w [ 4.4.4.2.2.2.2.2.2.2.2.4.4.4.:.,.5.Z < 4 7 7 7 7 7 7           ",
"    4 9 M V J K K G y 7             7 7 7 9 X.o.g.l.8.o.h 4 B K $.4.4.:.4.:.4.4.2.2.2.2.:.4.<.4.[ B h , W ` W 7 7 7 7           ",
"    7 7 4 t $.5.5.:.i 7             7 7 7 7 < 9 p.j.X.> 4 4 [ 2.<.4.5.2.<.4.<.5.2.2.2.2.4.<.4.<.Z 2 , 4 _ y._ 4 7 7 7           ",
"    4 7 7 r N B Z N t 7                 4 7 7 9 X.o.h 7 B K %.4.4.<.K B Z B Z B +.5.4.:.4.4.<.4.Z 4 7   Q / Q   7 7 7           ",
"    4 7 7 7 7 4 4 , 4 7                 7 7 7 7 - < 4 7 [ 6.4.4.<.4.m 2 3 4 4 3 J 4.<.4.:.4.4.4.Z 4       g       7 4           ",
"    4 7 7 9 Z J J J G G 7 7             7 7 7 4 7 7 7 7 { 5.2.2.P C a Y ^ _ _ _ } 4.<.4.4.      j 4 ! y.] `       7 7 7 7 4     ",
"    4 7 7 t $.5.5.5.6.;.h g             7 7 7 4 7 7 4 7 { 2.2.2.m 3 Y T q.y.y.y...5.4.<.        4 4 / y.t.y.t.    7 7 7 7 7 7   ",
"    4 t Z K ;.;.J A Z B t s 9 7 7 - - 7 7 7 4 4 7 7 N J @.4.,.,.m 4 Y R q.t.` / | | 7.5.            E ( ( (         7 7 7       ",
"    7 y *.5.5.;.u 4 4 7 7 9 7 7 4 4 4 4 7 7 4 4 < 7 { 5.1.4.4.,.m 4 Y R q.t.^ g ` y...<.            R R R R R         7 7       ",
"      0 c x A B r 7 7 7 7 7 7 r N F F F u 3 N G F F $.1.,.4.,.,.m 4 Q     t.~ g ` t...<.                      7 w 9 7 7 7 w     ",
"        . X 4 4 7 7 7 7 7 7 7 t O.5.5.:.k 9 +.5.5.5.5.5.4.,.,.4.l 4         9 g ` y...4.                      7 7 7 7 7 7 7 7   ",
"        . O - 4 7 7 7 7 7 7 7 t +.4.5.:.n 7 N A G A F A $.<.<.<.z 9       t.' / w.t. .<.                        7 7 7   7 7     ",
"        . . - 4 7 7 7 7 7 7 4 w +.4.4.<.n < 4 4 4 4 3 9 [ 4.            e.t.t.y.t.t.        z.z.z.z.              7 4           ",
"          4 O - * * 4 4 7 r M G $.5.<.:.n 4 4 4 * w w r ;.<.C           e.) ) ) e.t.        s.s.s.s.              7 7           ",
"            . o X X , 7 7 t O.5.4.<.4.:.k < 4 9         <.4.m 7 [ 5.    R R R R             i.i.u.u.              7 7           ",
"            v x x v t 7 9 r +.4.<.4.:.4.C 4 4 w           *.z 4 *.<.      R R R               i.i.i.              7             ",
"            4.<.4.;.p 4 4 w +.5.4.<.4.4.                                                                    & & 0               ",
"          q ;.<.4.;.u 7 M A %.2.1.,.U G                                                                     q &                 ",
"        . $ @.4.4.;.u r $.2.2.2.1.;.h 4                 7 7 7 7 7 7 $ $                                 q q &                   ",
"        . $ @.4.2.:.G Z &.2.2.,.I J u <                   9 7 7 7 7 7 %                                 & &                     ",
"        . $ @.<.2.2.2.2.2.2.2.:.p , 7 4                     7 7 7 7                         7 7 7 7 7 7                         ",
"        . $ @.4.,.2.,.4.2.2.2.:.p 4 7 4                       7 7 7                         7 # 7 - 7 7                         ",
"        . $ @.5.,.4.,.,.2.2.2.,.p 4             :.4.                                    ; 7 * .                                 ",
"        . $ A U ;.4.4.,.1.1.1.>.p 4             <.4.                                    7 7 p v l                               ",
"        . o 4 r #.4.,.4.,.1.1.;.p 4             <.<.    7 7 7 7             4.<.    4 4 4 4 G 5.Z 4                             ",
"        . = 4 9 A [ =.4.,.4.,.;.p 4               4.    7 7 7 7 7           4.4.I   k N M N [ 4.Z 4 7                           ",
"    . . : 7 7 7 r r #.5.,.,.,.;.h <                     7 7 7 7 7 7 7 7 P 5.<.5.x $ P 4.1.4.4.1.Z 4 7 7                         ",
"    o o - 7 7 7 7 9 G P ;.4.4.:.l 9                       = 7 7 7 7 7 7 U 4.+.P j $ J 4.1.<.1.<.B 9 : ; 7                       ",
"    o o < 4 4 4 4 4 4 r O.4.4.4.                            7 7 7 7 7 7 U 5.N 4 7 7                 0 $ ; 7 7                   ",
"    X O m M M M M m N B $.<.4.:.                              7 = = 7 7 N U k 7 7 7                   = ; 7 7                   ",
"    X $ @.4.4.:.1.1.;.5.4.4.4.4.                                    7 7 7 9 7 7 7 7                     7 7 7                   ",
"    X O O.4.4.4.4.4.4.<.4.<.:.5.                                      7 7 7 7 7 7 7                     7 7 7                   ",
"    X o     *.<.:.4.:.4.<.4.        4.:.q X o o o @                     7 7         7 7         7 7     7 7 9                   ",
"    o o     *.4.4.4.4.<.1.,.        J U k . . . . .                     7 7 7       7 7 7       7 7     7 7 7                   ",
"    X o                 1.-.h 9 7 7 7 4             7 7 { 4.            = 7 7 7     7 7 7 4 7 7         7 7 w                   ",
"    X o                 4.:.h - 7 7 7 4             7 7 [ <.              7 7 7       7 7 7 7 7 9         7                     ",
"    X o                 <.:.i - 7 7 7 7             7 7 { 4.                9 7         7 7 7 7 7 7 7 7                         ",
"    X o                 <.<.j 7 7 7 7 7             7 7 D {                 9 7           7 7 7 7 7 7 7                         ",
"    X O             o O                                 O @     <.4.4.<.    9 7                                                 ",
"    - .             = .                                 o o z   <.4.4.<.    7 7                                                 ",
"        . o O O @ o                                     . . [ 4.4.4.    = o                                                     ",
"        = o o o o .                                     4 . b { { { z   4 o                                                     ",
"                                                            o O O O @ @                                                         "
};
