/* XPM */
static char *_a417091df1147f1b7b07bdedd564eacpMuJV4iHw51dSVFh[] = {
/* columns rows colors chars-per-pixel */
"64 64 9 1 ",
"  c None",
". c #010101",
"X c #D76600",
"o c #E86E00",
"O c #FB7903",
"+ c #FF7900",
"@ c #FD7D09",
"# c #F0ECEC",
"$ c white",
/* pixels */
"                                                                ",
"                                                                ",
"                                                                ",
"                                                                ",
"                                    XXX                         ",
"                                   XOOOX                        ",
"                                  XOO+OOX                       ",
"                                 XOO+++OOX                      ",
"                                XOo++o++OOXXXXX                 ",
"                     XXX       XOO+o+Oo++OOOOOOXX               ",
"                     OOOX     XOOO+o+Oo+OOOO++OOOX              ",
"                    +++OOX   XOO+OOo+oO+OO++++++OOX             ",
"                    ++++@OXXXOOo+++o+Oo+OO+###+++OOX            ",
"                     ++O++OOOOO+o+oOOOOoOO#$$$$+++OOX           ",
"                     OOO+OO+OOOOoO+oO+Oo+O#$..$++++OOX          ",
"                     XOOOOOOOOOOoOOOo+Oo+O#$..$++++OOX          ",
"                     XO+OOO+OOOOo+OOo+Oo+O#$$$$+++OOX           ",
"                    XOO+++OOOO+o+++o++o+O++###++OOOX            ",
"                   XOO++OOOXXX+++o+O+oO+O+++++++OOX             ",
"                    O+++OOX   X+++oO+Oo+O+++++OOOX              ",
"                    O++OOX     X++o+OOoOOOOOOOOXX               ",
"                    XOOOX       XoO+OoOOOOXXXXX                 ",
"                     XXX         XOO+OOOOX                      ",
"                                  XOOOOOX                       ",
"                                   XOOOX                        ",
"                                    XXX                         ",
"                                                                ",
"                                                                ",
"                                                                ",
"                                                                ",
"                                                                ",
"                                                                ",
"                                                                ",
"                                                                ",
"                                                                ",
"                                                                ",
"                                                                ",
"                                                                ",
"                                                                ",
"                                                                ",
"                                                                ",
"                                                                ",
"                                                                ",
"                                                                ",
"                                                                ",
"                                                                ",
"                                                                ",
"                                                                ",
"                                                                ",
"                                                                ",
"                                                                ",
"                                                                ",
"                                                                ",
"                                                                ",
"                                                                ",
"                                                                ",
"                                                                ",
"                                                                ",
"                                                                ",
"                                                                ",
"                                                                ",
"                                                                ",
"                                                                ",
"                                                                "
};
