/* XPM */
static char *_39a2f2576284105ac9f11ce3558c175wBoJXJjoTvgoUvQ3[] = {
/* columns rows colors chars-per-pixel */
"64 64 154 2 ",
"   c None",
".  c black",
"X  c #010000",
"o  c #000101",
"O  c #010101",
"+  c #020101",
"@  c #020201",
"#  c #020203",
"$  c #030203",
"%  c gray1",
"&  c #040303",
"*  c #020304",
"=  c #010507",
"-  c #040404",
";  c #060606",
":  c #070606",
">  c #090206",
",  c #0F0709",
"<  c #0A0909",
"1  c gray4",
"2  c #0B0A0A",
"3  c #180408",
"4  c #1E090E",
"5  c #031012",
"6  c #041418",
"7  c #361F08",
"8  c #370B17",
"9  c #3A121E",
"0  c #3B2109",
"q  c #042429",
"w  c #062A30",
"e  c #072E35",
"r  c #0F2E33",
"t  c #102D33",
"y  c #063239",
"u  c #113137",
"i  c #470D1F",
"p  c #4F2F05",
"a  c #523105",
"s  c #4C0F23",
"d  c #771132",
"f  c #751434",
"g  c #063A42",
"h  c #7D1E75",
"j  c #07424B",
"k  c #0B454E",
"l  c #094B56",
"z  c #0C4A54",
"x  c #104852",
"c  c #06505B",
"v  c #075D6B",
"b  c #076572",
"n  c #0A6673",
"m  c #066978",
"M  c #831238",
"N  c #90183F",
"B  c #98671A",
"V  c #B66C07",
"C  c #BF7A27",
"Z  c #C87807",
"A  c #991B5B",
"S  c #AC1949",
"D  c #A21A51",
"F  c #8F1C65",
"G  c #861D6E",
"H  c #BA1E66",
"J  c #C31B51",
"K  c #DC1F5E",
"L  c #D41F65",
"P  c #E41E67",
"I  c #EA1D62",
"U  c #EF1E62",
"Y  c #E01F6C",
"T  c #D22067",
"R  c #D72076",
"E  c #D2207B",
"W  c #6BA978",
"Q  c #77AB72",
"!  c #E98E0B",
"~  c #EC9B0F",
"^  c #FF9700",
"/  c #FC9703",
"(  c #F79807",
")  c #FF9902",
"_  c #E29C18",
"`  c #D59D23",
"'  c #D99D21",
"]  c #C8A030",
"[  c #FFA42E",
"{  c #A8A549",
"}  c #C0A648",
"|  c #741E80",
" . c #067384",
".. c #0B7180",
"X. c #077B8C",
"o. c #077F91",
"O. c #376E8C",
"+. c #3D6F8E",
"@. c #4C78BE",
"#. c #5977B2",
"$. c #5277B8",
"%. c #6874A1",
"&. c #6275A8",
"*. c #4679C4",
"=. c #BF218C",
"-. c #AF239B",
";. c #B52396",
":. c #B92292",
">. c #9F26AE",
",. c #9A26B3",
"<. c #AA24A1",
"1. c #A225A9",
"2. c #C52186",
"3. c #CB2181",
"4. c #C6228B",
"5. c #098597",
"6. c #058A9C",
"7. c #098A9C",
"8. c #078EA1",
"9. c #0893A6",
"0. c #0697AB",
"q. c #0B95AA",
"w. c #0A9AAE",
"e. c #08A1B7",
"r. c #1FB6BB",
"t. c #19B8BF",
"y. c #3CB2A1",
"u. c #30B4AD",
"i. c #27B6B4",
"p. c #4DB093",
"a. c #4FB093",
"s. c #60AE84",
"d. c #06ACC3",
"f. c #06B1C9",
"g. c #06B3CB",
"h. c #04B6CF",
"j. c #15B8C2",
"k. c #11BACE",
"l. c #04B9D1",
"z. c #05BAD3",
"x. c #00BAD4",
"c. c #01BBD4",
"v. c #01BBD5",
"b. c #02BAD4",
"n. c #00BBD7",
"m. c #01BCD5",
"M. c #01BCD6",
"N. c #01BDD7",
"B. c #02BED8",
"V. c #7BC1C4",
"C. c #60C3D3",
"Z. c #FABB8D",
"A. c #C9C9CD",
"S. c #FFCDCC",
/* pixels */
"                                                                                                                                ",
"                          O O O O O O O @ @ O O @ @ @ @ @ @ @ @ @ @ @ @ @ @ @ @ @ @ @ @ @ @ O O O @ O 2                         ",
"                          O O O O O = = = = = = = = = = = = = = = = = = = = = = = = = = = = O O O O O 2                         ",
"                              & O w X.o.5.X.o.o.o.o.X.5.o.o.o.o.o.o.o.o.o.o.o.o.o.o.o.o.o.o.y O @                               ",
"                              : O j l.B.B.B.B.n.N.B.B.B.B.B.B.B.B.B.B.B.B.B.B.B.B.B.N.B.B.B.l O &                               ",
"                              2 : k q.0.f.c.c.b.b.c.b.b.b.b.b.b.b.b.b.b.b.b.b.b.b.b.c.f.w.q.k - 2                               ",
"                                    6 6 o.n.b.b.b.b.b.b.b.b.b.b.b.b.b.b.b.b.b.b.b.b.B.7.6 6                                     ",
"                                    * - X.B.b.b.b.b.b.b.b.b.b.b.b.b.b.b.b.b.b.b.c.c.N.5.= O                                     ",
"                                  2 O * X.B.b.b.b.b.b.b.b.b.b.b.b.b.b.b.b.b.b.b.b.b.N.5.= O 2                                   ",
"                              : O O O O X.N.b.b.b.b.b.b.b.b.b.b.b.b.b.b.b.b.b.b.b.b.N.5.= O O O ,                               ",
"                              : O = 5 5 o.B.c.c.b.b.b.b.b.b.b.b.b.b.b.b.b.b.b.b.c.c.N.7.6 5 = O @                               ",
"                          : : - O y 8.0.d.c.c.c.b.b.b.b.b.b.b.b.b.b.b.b.b.b.b.b.b.b.c.f.0.9.g O - : :                           ",
"                          O O O O g l.B.c.b.b.b.b.b.b.b.b.b.b.b.b.b.b.b.b.b.b.b.b.b.b.c.B.c.l O O O O 2                         ",
"                        2 O = e g b l.c.b.b.b.b.b.b.b.b.b.b.b.b.b.b.b.b.b.b.b.b.b.b.b.b.b.l.m g y = O 2                         ",
"                    O O O O 5 9.h.h.c.b.b.b.b.b.b.b.b.b.b.b.b.b.b.b.b.b.b.b.b.b.b.b.b.b.b.b.h.h.w.6 O O * -                     ",
"                    O O O O 5 0.B.c.c.b.b.b.b.b.b.b.b.b.b.b.b.b.b.b.b.b.b.b.b.b.b.b.b.b.b.b.c.c.e.6 O O O @                     ",
"                2 r .. . . .X.d.c.b.b.b.b.b.b.b.b.b.b.b.b.b.b.b.b.b.b.b.b.b.b.b.b.b.b.b.b.b.b.n.g.X. . . ...r 2                 ",
"              2 O q d.B.B.n.n.c.b.b.b.b.b.b.b.b.b.b.b.b.b.b.b.b.b.b.b.b.b.b.b.b.b.b.b.b.b.b.b.b.l.N.N.N.B.g.e O -               ",
"              2 O q d.c.c.b.c.c.b.b.b.b.b.b.b.b.b.b.b.b.b.b.b.b.b.b.b.b.b.b.b.b.b.b.b.b.b.b.b.b.b.b.c.c.c.g.e O -               ",
"              2 O q d.c.c.c.b.b.b.b.b.b.b.b.b.b.b.b.b.b.b.b.b.b.b.b.b.b.b.b.b.b.b.b.b.b.b.b.b.b.b.b.c.c.l.g.e O -               ",
"              2 O q d.c.b.b.b.b.b.b.b.b.b.b.b.b.b.b.b.b.b.b.b.b.b.b.b.b.b.b.b.b.b.b.b.b.b.b.b.b.b.b.b.c.c.f.w O -               ",
"              x c b g.c.c.b.b.b.b.b.b.b.b.b.b.b.b.b.b.b.b.b.b.b.b.b.b.b.b.b.b.b.b.b.b.b.b.b.b.b.b.b.b.c.c.h.m c k               ",
"          O = 5.B.c.c.b.c.b.b.b.b.b.b.b.b.b.b.b.b.b.b.b.b.b.b.b.b.b.b.b.b.b.b.b.b.b.b.b.b.b.b.b.b.b.b.b.b.b.c.B.7.= O           ",
"          O = X.n.b.b.b.b.b.b.b.b.b.b.b.b.b.b.b.b.b.b.b.b.b.b.b.b.b.b.b.b.b.b.b.b.b.b.b.b.b.b.b.b.b.b.b.b.b.b.c.6.= O           ",
"          @ = o.N.c.c.c.b.b.b.b.b.b.b.b.b.b.b.b.b.b.b.b.b.b.b.b.b.b.b.b.b.b.b.b.b.b.b.b.b.b.b.b.b.b.b.b.b.b.b.N.6.= O           ",
"          = - o.N.c.b.b.b.b.b.b.b.b.b.b.b.b.b.b.b.b.b.b.b.b.b.b.b.b.b.b.b.b.b.b.b.b.b.b.b.b.b.b.b.b.b.b.b.b.b.N.6.= O           ",
"          y y 8.c.c.b.b.b.b.b.b.b.b.b.b.b.b.b.b.b.b.b.b.b.b.b.b.b.b.b.b.b.b.b.b.b.b.b.b.b.b.b.b.b.b.b.b.b.b.b.N.0.y e           ",
"    - * g g.g.l.c.b.b.b.b.b.b.b.b.b.b.b.b.b.b.b.b.b.b.b.b.b.b.b.b.b.b.b.b.b.b.b.b.b.b.b.b.b.b.b.b.b.b.b.b.b.b.b.l.g.g.z * -     ",
"    - O k l.c.c.b.b.b.b.b.b.b.b.b.b.b.b.b.b.b.b.b.b.b.b.b.b.b.b.b.b.b.b.b.b.b.b.c.c.b.b.b.b.b.b.b.b.b.b.b.b.b.b.b.b.b.l O O     ",
"    - O j l.c.c.b.b.b.b.b.b.b.b.b.b.b.b.b.b.b.b.b.b.b.b.b.b.b.b.b.b.b.b.b.b.b.b.c.c.b.b.b.b.b.b.b.b.b.b.b.b.b.b.b.b.z.l O O     ",
"    : O j l.c.c.b.b.b.b.b.b.b.b.b.b.b.b.b.b.b.b.b.b.b.b.b.n.c.n.b.b.n.n.b.n.c.c.n.c.b.b.b.b.b.b.b.b.b.b.b.b.b.b.b.N.l.l O @     ",
"    : O j l.c.c.b.b.b.b.b.b.b.b.b.b.b.b.b.b.b.b.b.b.b.b.j.i.i.j.r.r.i.j.b.n.k.i.i.k.b.b.b.b.b.b.b.b.b.b.b.b.b.c.c.l.l.l O O     ",
"    - O j l.c.b.b.b.b.b.b.b.b.b.b.b.b.b.b.b.b.b.c.c.c.j.{ ' ` ` ` ` ' { t.c.s.` ] u.n.b.b.b.b.b.b.b.b.b.b.b.b.b.b.b.z.z O @     ",
"    - O j l.c.b.b.b.b.b.b.b.b.b.b.b.b.b.b.b.b.b.c.c.n.j.] ) ) ^ / / / ' r.b.Q / ~ y.n.b.b.b.b.b.b.b.b.b.b.b.b.b.b.c.b.l O O     ",
"    : O j l.c.b.b.b.b.b.b.b.b.b.b.b.b.b.b.b.b.b.c.u.s.W B B V / / / / _ Q s.{ / ~ y.n.b.b.b.b.b.b.b.b.b.b.b.b.b.b.c.b.l O O     ",
"    : O j l.c.b.b.b.b.b.b.b.b.b.b.b.b.b.b.b.b.c.c.Q ( ! 7 O p ( / / / / / / / ^ ~ y.n.b.b.b.b.b.b.b.b.b.b.b.b.b.b.c.z.z O -     ",
"    : O j l.b.b.b.b.b.b.b.b.b.b.b.b.b.b.b.b.b.c.c.Q ^ ! 0 O a ( ^ ^ ^ / ( ( / ^ ~ y.n.b.b.b.b.b.b.b.b.b.b.b.b.b.b.b.b.l O @     ",
"    - O j l.c.b.b.b.b.b.b.b.b.b.b.b.b.b.b.b.b.b.c.V.Z.Z.C V Z / ^ ^ ^ _ s.p.{ / ~ y.n.b.b.b.b.b.b.b.b.b.b.b.b.b.b.b.b.l O O     ",
"    : O j b.c.b.b.b.b.b.b.b.b.b.b.b.b.b.b.b.b.b.c.V.S.S.[ / ^ / ^ ^ ^ ` r.n.Q ^ ~ y.c.b.b.b.b.b.b.b.b.b.b.b.b.b.b.N.l.l O -     ",
"    - O j h.c.b.b.b.b.b.b.b.b.b.b.b.b.b.b.b.b.c.c.C.A.A.} ] ' / / ' ] { j.n.s.] } u.n.b.b.b.b.b.b.b.b.b.b.b.b.b.c.l.l.l O -     ",
"    2 O j l.l.c.b.b.b.b.b.b.b.b.b.b.b.b.b.b.c.c.b.b.k.k.j.j.s.( ( W j.j.h.c.k.j.j.z.b.b.b.b.b.b.b.b.b.b.b.b.b.b.c.c.z.z O O     ",
"    - O j l.c.c.b.b.b.b.b.b.b.b.b.b.b.b.b.b.b.c.b.c.b.c.c.n.p.( ( s.n.c.b.b.c.n.b.b.b.b.b.b.b.b.b.b.b.b.b.b.b.b.b.c.b.l O -     ",
"    : O j l.c.c.b.b.b.b.b.b.b.b.b.b.b.b.b.b.b.b.b.b.b.b.b.b.i.Q Q u.c.c.b.b.b.b.b.b.b.b.b.b.b.b.b.b.b.b.b.b.b.b.b.c.b.l O O     ",
"    - O j h.c.c.b.b.b.b.b.b.b.b.b.b.b.b.b.b.b.b.b.b.b.b.b.b.b.b.c.c.c.c.b.b.b.b.b.b.b.b.b.b.b.b.b.b.b.b.b.b.b.b.b.c.z.z O -     ",
"    - - z d.d.h.c.c.b.b.b.b.b.b.b.b.b.b.b.b.b.b.b.b.b.b.b.b.c.c.b.b.b.b.b.b.b.b.b.b.b.b.b.b.b.b.b.b.b.b.b.b.b.b.h.d.d.z @ -     ",
"          w w 8.n.c.b.b.b.b.b.b.b.b.b.b.b.b.b.b.b.b.b.b.b.b.c.b.b.b.b.b.b.b.b.b.b.b.b.b.b.b.b.b.b.b.b.b.b.b.b.c.9.w q           ",
"          O * o.n.c.b.b.b.b.b.b.b.b.b.b.b.b.b.b.b.b.b.b.b.b.b.b.b.b.b.b.b.b.b.b.b.b.b.b.b.b.b.b.b.b.b.b.b.b.b.N.6.= O           ",
"          O = o.n.c.b.b.b.b.b.b.b.b.b.b.b.b.b.b.b.b.b.b.b.b.b.b.b.b.b.b.b.b.b.b.b.b.b.b.b.b.b.b.b.b.b.b.b.b.b.B.6.= O           ",
"          O = o.c.c.c.c.c.b.b.b.b.b.b.b.b.b.b.b.b.b.b.b.b.b.b.b.b.b.b.b.b.b.b.b.b.b.b.b.b.b.b.b.b.b.b.b.b.b.b.B.6.= O           ",
"          - O 5.b.h.c.l.c.b.b.b.b.b.b.b.b.b.b.b.b.b.b.b.b.b.b.b.b.b.b.b.b.b.b.b.b.b.b.b.b.b.b.b.b.b.b.b.c.c.h.b.7.O *           ",
"              z j v f.N.c.b.b.b.b.b.b.b.b.b.b.b.b.b.b.b.b.b.b.b.b.b.b.b.b.b.b.b.b.b.b.b.b.b.b.b.b.b.b.b.c.h.v j k               ",
"              2 O q d.c.b.b.b.b.b.b.b.b.b.b.b.b.b.b.b.b.b.b.b.b.b.b.b.b.b.b.b.b.b.b.b.b.b.b.b.b.b.b.b.b.l.g.w O -               ",
"              2 O q d.N.b.b.b.b.b.b.b.b.b.b.b.b.b.b.l.N.l.c.b.b.b.b.b.b.b.b.b.b.b.b.b.b.c.b.b.b.b.b.b.b.c.f.e O -               ",
"              2 O q d.b.b.b.b.b.b.b.b.b.b.b.b.b.b.b.c.z.c.c.b.c.b.b.b.b.b.b.b.b.b.b.b.b.c.c.b.b.b.b.b.b.c.f.e O -               ",
"              2 O q d.B.b.l.c.c.b.N.b.b.b.B.z.z.N.c.N.c.c.c.c.c.b.B.b.b.b.b.b.b.b.b.c.c.c.c.c.N.N.c.c.c.B.g.e O -               ",
"                2 t n m O.%.%.*.*.$.%.%.$.*.*.&.%.#.*.*.&.%.&.*.*.#.%.&.*.*.#.%.%.*.*.$.%.%.$.*.@.&.%.+.m n t 2                 ",
"                    - O d U L <.,.;.P P ;.,.<.Y I 2.,.1.R I E >.1.3.I Y 1.,.=.I P <.,.-.P I :.,.<.L U M O @                     ",
"                    - O f K L -.>.:.L Y :.>.-.Y P 2.1.<.R P E 1.1.3.P E <.1.=.P Y -.>.;.Y P :.>.<.L K N - O                     ",
"                        9 8 s H R 3.-.-.3.R 3.;.-.=.R E ;.-.:.E R 4.-.;.E R 2.-.-.3.R 3.-.-.4.R H s 8 9                         ",
"                          O 3 J U E >.>.E U Y 1.,.4.U P <.,.;.U I :.,.<.Y U 4.,.1.R U E >.,.3.U J 4 O 2                         ",
"                          - 4 D S A | | A S D | | F S D h | G S S G | h D S F | | A S A | | A S D 4 O                           ",
"                              @ > > > > > > > > > > > > > > > > > > > > : : > > > > > > > > > : &                               ",
"                              - O O O O O O O O O O O O O O O O O O O O O O O O O O O O O O O O -                               ",
"                                                                                                                                "
};
